<?xml version="1.0" encoding="utf-8"?>
<svg xmlns="http://www.w3.org/2000/svg" xmlns:xlink="http://www.w3.org/1999/xlink" style="margin: auto; background: none; display: block; shape-rendering: auto;" width="184px" height="184px" viewBox="0 0 100 100" preserveAspectRatio="xMidYMid">
<g transform="translate(50 50)">
<g>
<animateTransform attributeName="transform" type="rotate" values="0;45" keyTimes="0;1" dur="0.1529051987767584s" repeatCount="indefinite"></animateTransform><path d="M23.574350468252568 -4.5 L35.57435046825257 -4.5 L35.57435046825257 4.5 L23.574350468252568 4.5 A24 24 0 0 1 19.851563593509116 13.487602562830187 L19.851563593509116 13.487602562830187 L28.336844967747687 21.972883937068758 L21.972883937068758 28.336844967747687 L13.48760256283019 19.851563593509116 A24 24 0 0 1 4.5000000000000036 23.574350468252565 L4.5000000000000036 23.574350468252565 L4.500000000000004 35.57435046825256 L-4.500000000000001 35.57435046825257 L-4.500000000000002 23.574350468252568 A24 24 0 0 1 -13.487602562830183 19.85156359350912 L-13.487602562830183 19.85156359350912 L-21.97288393706875 28.336844967747687 L-28.336844967747687 21.972883937068758 L-19.851563593509116 13.487602562830187 A24 24 0 0 1 -23.574350468252565 4.500000000000006 L-23.574350468252565 4.500000000000006 L-35.57435046825256 4.500000000000008 L-35.57435046825257 -4.499999999999998 L-23.574350468252568 -4.5 A24 24 0 0 1 -19.85156359350912 -13.487602562830181 L-19.85156359350912 -13.487602562830181 L-28.33684496774769 -21.97288393706875 L-21.97288393706876 -28.336844967747684 L-13.48760256283019 -19.851563593509116 A24 24 0 0 1 -4.500000000000007 -23.574350468252565 L-4.500000000000007 -23.574350468252565 L-4.50000000000001 -35.57435046825256 L4.499999999999996 -35.57435046825257 L4.499999999999998 -23.574350468252568 A24 24 0 0 1 13.487602562830181 -19.85156359350912 L13.487602562830181 -19.85156359350912 L21.97288393706875 -28.33684496774769 L28.336844967747684 -21.97288393706876 L19.851563593509116 -13.48760256283019 A24 24 0 0 1 23.574350468252565 -4.500000000000009 M0 -42A42 42 0 1 0 0 42 A42 42 0 1 0 0 -42" fill="#ffe691"></path></g></g>
<!-- [ldio] generated by https://loading.io/ --></svg>